<svg xmlns="http://www.w3.org/2000/svg" viewBox="0 0 1800 1798.47">
  <defs>
    <style>.cls-1{fill:#fff;}</style>
  </defs>
  <title>consensys-plexus-white</title>
  <g id="Layer_2" data-name="Layer 2">
    <g id="Layer_1-2" data-name="Layer 1">
      <g id="Layer_1-2-2" data-name="Layer 1-2">
        <g id="main-Logo">
          <path class="cls-1"
            d="M820.73,1792.36a3.06,3.06,0,1,0,3.08,3.07,3.05,3.05,0,0,0-3.08-3.07Z"/>
          <path class="cls-1"
            d="M735.56,1762.75a6.09,6.09,0,0,0-6.12,6v.07a6.14,6.14,0,1,0,6.15-6.12Z"/>
          <path class="cls-1" d="M653.64,1724.39a9.2,9.2,0,1,0,.81,0Z"/>
          <path class="cls-1" d="M575.89,1677.58a12.3,12.3,0,1,0,.09,0Z"/>
          <path class="cls-1"
            d="M503.23,1622.89a15.36,15.36,0,1,0,15.34,15.37v0A15.36,15.36,0,0,0,503.23,1622.89Z"/>
          <path class="cls-1" d="M436.34,1560.73a18.42,18.42,0,1,0,.08,0Z"/>
          <path class="cls-1"
            d="M376.08,1491.94a21.58,21.58,0,1,0,21.58,21.58A21.58,21.58,0,0,0,376.08,1491.94Z"/>
          <path class="cls-1"
            d="M323.11,1417a24.6,24.6,0,1,0,24.62,24.62A24.6,24.6,0,0,0,323.11,1417Z"/>
          <path class="cls-1"
            d="M307.38,1363.67a27.66,27.66,0,1,0-27.68,27.66A27.67,27.67,0,0,0,307.38,1363.67Z"/>
          <path class="cls-1"
            d="M277.72,1280.69a30.76,30.76,0,1,0-30.79,30.72,30.76,30.76,0,0,0,30.79-30.72Z"/>
          <path class="cls-1"
            d="M259.21,1194.18A33.81,33.81,0,1,0,225.4,1228,33.81,33.81,0,0,0,259.21,1194.18Z"/>
          <path class="cls-1"
            d="M252.25,1105.59a36.89,36.89,0,1,0-37,36.82h.11a36.81,36.81,0,0,0,36.85-36.78Z"/>
          <path class="cls-1" d="M217,1056.31a39.94,39.94,0,1,0-.09,0Z"/>
          <path class="cls-1" d="M187.27,928.21a43,43,0,1,0,43-43h-.09a43,43,0,0,0-42.92,43Z"/>
          <path class="cls-1"
            d="M1478.2,1586.93a2.74,2.74,0,1,0,2.71,2.76v0A2.75,2.75,0,0,0,1478.2,1586.93Z"/>
          <path class="cls-1"
            d="M1399.19,1625.71a5.39,5.39,0,0,0-5.39,5.39,5.47,5.47,0,1,0,10.93,0,5.39,5.39,0,0,0-5.39-5.39Z"/>
          <path class="cls-1"
            d="M1316.34,1655.92a8.17,8.17,0,1,0,8.14,8.19v0a8.14,8.14,0,0,0-8.14-8.15Z"/>
          <path class="cls-1"
            d="M1230.42,1677.29a10.87,10.87,0,1,0,10.88,10.87A10.87,10.87,0,0,0,1230.42,1677.29Z"/>
          <path class="cls-1"
            d="M1142.51,1689.43a13.6,13.6,0,1,0,13.47,13.72.86.86,0,0,0,0-.16A13.6,13.6,0,0,0,1142.51,1689.43Z"/>
          <path class="cls-1" d="M1053.49,1692.25a16.17,16.17,0,1,0,.25,0Z"/>
          <path class="cls-1" d="M964.32,1685.72a19,19,0,1,0,.07,0Z"/>
          <path class="cls-1"
            d="M876.16,1669.65a21.73,21.73,0,1,0,21.73,21.72v-.14A21.69,21.69,0,0,0,876.16,1669.65Z"/>
          <path class="cls-1"
            d="M790.36,1642.51a24.41,24.41,0,1,0,24.44,24.37A24.4,24.4,0,0,0,790.36,1642.51Z"/>
          <path class="cls-1"
            d="M708.58,1604.24a27.16,27.16,0,1,0,27.12,27.19v-.06a27.12,27.12,0,0,0-27.1-27.13Z"/>
          <path class="cls-1"
            d="M662,1585.44A29.9,29.9,0,1,0,632,1615.31h.05A29.82,29.82,0,0,0,662,1585.53Z"/>
          <path class="cls-1"
            d="M562.38,1497.33a32.56,32.56,0,1,0,32.52,32.59v-.05A32.65,32.65,0,0,0,562.38,1497.33Z"/>
          <path class="cls-1" d="M500.46,1430.36a35.25,35.25,0,1,0,.05,0Z"/>
          <path class="cls-1" d="M447.48,1432a37.93,37.93,0,1,0-.15,0Z"/>
          <path class="cls-1"
            d="M444.91,1316a40.7,40.7,0,1,0-40.72,40.72A40.7,40.7,0,0,0,444.91,1316Z"/>
          <path class="cls-1"
            d="M1797.59,976.84a2.46,2.46,0,0,0-2.46,2.39,2.53,2.53,0,0,0,2.46,2.5,2.45,2.45,0,0,0,2.41-2.48v0a2.39,2.39,0,0,0-2.39-2.39Z"/>
          <path class="cls-1"
            d="M1771.06,1059.59a4.86,4.86,0,1,0,4.82,4.89v-.07a4.79,4.79,0,0,0-4.78-4.82Z"/>
          <path class="cls-1"
            d="M1735.69,1139a7.32,7.32,0,1,0,7.37,7.26v-.07A7.3,7.3,0,0,0,1735.69,1139Z"/>
          <path class="cls-1"
            d="M1692,1214.42a9.69,9.69,0,1,0,9.73,9.67,9.69,9.69,0,0,0-9.73-9.67Z"/>
          <path class="cls-1"
            d="M1640.37,1284.65a12.16,12.16,0,1,0,12.17,12.19A12.15,12.15,0,0,0,1640.37,1284.65Z"/>
          <path class="cls-1"
            d="M1581.31,1349.05a14.61,14.61,0,1,0,14.58,14.62v0a14.57,14.57,0,0,0-14.55-14.59Z"/>
          <path class="cls-1" d="M1515.57,1407a17,17,0,1,0,.11,0Z"/>
          <path class="cls-1"
            d="M1443.79,1457.41a19.48,19.48,0,1,0,19.37,19.58v-.09A19.53,19.53,0,0,0,1443.79,1457.41Z"/>
          <path class="cls-1"
            d="M1365.88,1498.4a21.89,21.89,0,1,0,21.87,21.9v0A22,22,0,0,0,1365.88,1498.4Z"/>
          <path class="cls-1"
            d="M1282.89,1528.7a24.35,24.35,0,1,0,24.26,24.44V1553A24.32,24.32,0,0,0,1282.89,1528.7Z"/>
          <path class="cls-1"
            d="M1196.34,1547.85a26.78,26.78,0,1,0,26.73,26.84v0A26.84,26.84,0,0,0,1196.34,1547.85Z"/>
          <path class="cls-1"
            d="M1107.7,1555.43a29.19,29.19,0,1,0,29.19,29.24A29.18,29.18,0,0,0,1107.7,1555.43Z"/>
          <path class="cls-1"
            d="M1050.13,1583a31.59,31.59,0,1,0-31.64,31.58A31.58,31.58,0,0,0,1050.13,1583Z"/>
          <path class="cls-1" d="M964.41,1569.81a34,34,0,1,0-34.08,34h0a34,34,0,0,0,34.06-34Z"/>
          <path class="cls-1" d="M881.23,1545.12a36.51,36.51,0,1,0,0,.05Z"/>
          <path class="cls-1" d="M801.7,1509.53a38.88,38.88,0,1,0,0,.14Z"/>
          <path class="cls-1" d="M1591.75,324.26a2.43,2.43,0,1,0,0-4.85h0a2.43,2.43,0,0,0,0,4.85Z"/>
          <path class="cls-1" d="M1633.32,405.68a4.81,4.81,0,1,0-.11,0Z"/>
          <path class="cls-1" d="M1666.21,491a7.15,7.15,0,1,0-.09,0Z"/>
          <path class="cls-1"
            d="M1690.31,579.31a9.75,9.75,0,1,0-9.69-9.81v.09a9.69,9.69,0,0,0,9.67,9.72Z"/>
          <path class="cls-1"
            d="M1693,657.56a12.16,12.16,0,1,0,12.14-12.2A12.16,12.16,0,0,0,1693,657.56Z"/>
          <path class="cls-1"
            d="M1710.69,732a14.57,14.57,0,1,0,14.62,14.6,14.57,14.57,0,0,0-14.62-14.6Z"/>
          <path class="cls-1" d="M1706.82,818.65a17,17,0,1,0,17.07,17v0a17,17,0,0,0-17-17Z"/>
          <path class="cls-1" d="M1693.49,904.43a19.45,19.45,0,1,0,.11,0Z"/>
          <path class="cls-1"
            d="M1690.94,1009.68a21.91,21.91,0,1,0-21.92,21.89h.07a21.81,21.81,0,0,0,21.85-21.78Z"/>
          <path class="cls-1"
            d="M1633.53,1067.21a24.32,24.32,0,1,0,24.32,24.32v0a24.27,24.27,0,0,0-24.23-24.3Z"/>
          <path class="cls-1"
            d="M1587.62,1141.26a26.73,26.73,0,1,0,26.71,26.74v0A26.73,26.73,0,0,0,1587.62,1141.26Z"/>
          <path class="cls-1"
            d="M1532,1208.57a29.17,29.17,0,1,0,29.15,29.19v-.07a29.12,29.12,0,0,0-29.12-29.12Z"/>
          <path class="cls-1" d="M1467.82,1267.92a31.61,31.61,0,1,0,.06,0Z"/>
          <path class="cls-1" d="M1396.13,1318.55a34,34,0,1,0,.06,0Z"/>
          <path class="cls-1"
            d="M1318.12,1359.28a36.5,36.5,0,1,0,36.47,36.51,36.49,36.49,0,0,0-36.47-36.51Z"/>
          <path class="cls-1"
            d="M1235.12,1389.55a38.9,38.9,0,1,0,38.93,38.9A38.9,38.9,0,0,0,1235.12,1389.55Z"/>
          <path class="cls-1"
            d="M981.44,4.86A2.43,2.43,0,1,0,979,2.41,2.43,2.43,0,0,0,981.44,4.86Z"/>
          <path class="cls-1"
            d="M1066.6,33.83a4.88,4.88,0,1,0-4.89-4.89,4.88,4.88,0,0,0,4.89,4.89Z"/>
          <path class="cls-1"
            d="M1148.54,71.56a7.3,7.3,0,1,0-7.32-7.28v.09A7.28,7.28,0,0,0,1148.54,71.56Z"/>
          <path class="cls-1" d="M1226.29,117.69a9.69,9.69,0,1,0-.17,0Z"/>
          <path class="cls-1" d="M1299,171.74a12.12,12.12,0,1,0-.09,0Z"/>
          <path class="cls-1"
            d="M1365.79,233.26a14.61,14.61,0,1,0-14.53-14.67v0A14.62,14.62,0,0,0,1365.79,233.26Z"/>
          <path class="cls-1" d="M1426.17,301.42a17,17,0,1,0-17.09-17v0a17,17,0,0,0,17.09,16.94Z"/>
          <path class="cls-1" d="M1479.1,375.7a19.47,19.47,0,1,0-.07,0Z"/>
          <path class="cls-1" d="M1522.48,456a21.91,21.91,0,1,0-.06,0Z"/>
          <path class="cls-1"
            d="M1530.91,517.1a24.34,24.34,0,1,0,24.35-24.32h0A24.27,24.27,0,0,0,1530.91,517Z"/>
          <path class="cls-1" d="M1550.07,603.73a26.72,26.72,0,1,0,0-.2Z"/>
          <path class="cls-1" d="M1557.58,692.41a29.25,29.25,0,1,0,0-.13Z"/>
          <path class="cls-1"
            d="M1616.81,781.49a31.62,31.62,0,1,0-31.67,31.56h0a31.53,31.53,0,0,0,31.64-31.42Z"/>
          <path class="cls-1"
            d="M1605.91,869.65a34,34,0,1,0-34,34.06h0A34,34,0,0,0,1605.91,869.65Z"/>
          <path class="cls-1"
            d="M1583.79,955.38a36.48,36.48,0,1,0-36.48,36.48,36.47,36.47,0,0,0,36.48-36.48Z"/>
          <path class="cls-1" d="M1511.67,998.15a39,39,0,1,0,.07,0Z"/>
          <path class="cls-1"
            d="M324,210.6a2.42,2.42,0,0,0,2.41-2.41,2.44,2.44,0,1,0-4.87,0A2.4,2.4,0,0,0,324,210.6Z"/>
          <path class="cls-1" d="M403,171.54a4.84,4.84,0,1,0-4.88-4.8,4.84,4.84,0,0,0,4.88,4.8Z"/>
          <path class="cls-1"
            d="M485.82,141.05a7.34,7.34,0,1,0-7.19-7.47v.28A7.19,7.19,0,0,0,485.82,141.05Z"/>
          <path class="cls-1"
            d="M571.72,119.42a9.73,9.73,0,1,0-9.73-9.73v0a9.67,9.67,0,0,0,9.64,9.71Z"/>
          <path class="cls-1" d="M659.66,107a11.52,11.52,0,1,0-.18,0Z"/>
          <path class="cls-1" d="M748.7,103.88a14.57,14.57,0,1,0-.14,0Z"/>
          <path class="cls-1"
            d="M837.82,110.12a17,17,0,1,0-17-17.05v.09a16.94,16.94,0,0,0,16.92,17Z"/>
          <path class="cls-1"
            d="M926,125.89a19.46,19.46,0,1,0-19.42-19.49v0A19.42,19.42,0,0,0,926,125.89Z"/>
          <path class="cls-1"
            d="M1011.84,152.87A21.89,21.89,0,1,0,990,131h0A22,22,0,0,0,1011.84,152.87Z"/>
          <path class="cls-1"
            d="M1093.65,190.64a24.32,24.32,0,1,0-24.24-24.39v.07a24.26,24.26,0,0,0,24.2,24.32Z"/>
          <path class="cls-1"
            d="M1143.36,212.33a26.75,26.75,0,1,0,26.8-26.69h-.06A26.74,26.74,0,0,0,1143.36,212.33Z"/>
          <path class="cls-1"
            d="M1239.87,297.13A29.16,29.16,0,1,0,1210.64,268a29.16,29.16,0,0,0,29.23,29.16Z"/>
          <path class="cls-1"
            d="M1301.73,363.78a31.64,31.64,0,1,0-31.58-31.69v.09A31.64,31.64,0,0,0,1301.73,363.78Z"/>
          <path class="cls-1" d="M1354.7,369.8a34,34,0,1,0,34,34.05,34,34,0,0,0-34-34.05Z"/>
          <path class="cls-1" d="M1361.42,482a36.42,36.42,0,1,0,0-.11Z"/>
          <path class="cls-1"
            d="M1391.71,564.83A38.89,38.89,0,1,0,1430.65,526,38.89,38.89,0,0,0,1391.71,564.83Z"/>
          <path class="cls-1"
            d="M1452.05,610a41.36,41.36,0,1,0,41.36,41.36h0A41.36,41.36,0,0,0,1452.05,610Z"/>
          <path class="cls-1" d="M4.59,814a4.59,4.59,0,1,0,4.58,4.58A4.58,4.58,0,0,0,4.59,814Z"/>
          <path class="cls-1"
            d="M31.17,724.24a9.18,9.18,0,1,0,9.12,9.23v0A9.23,9.23,0,0,0,31.17,724.24Z"/>
          <path class="cls-1"
            d="M80.21,651.53a13.8,13.8,0,1,0-13.85,13.74h0A13.81,13.81,0,0,0,80.21,651.53Z"/>
          <path class="cls-1"
            d="M110.12,592.11a18.35,18.35,0,1,0-18.33-18.4A18.34,18.34,0,0,0,110.12,592.11Z"/>
          <path class="cls-1"
            d="M161.84,524A22.93,22.93,0,1,0,138.93,501v0A22.87,22.87,0,0,0,161.77,524Z"/>
          <path class="cls-1"
            d="M220.83,461.67a27.5,27.5,0,1,0-27.49-27.5v0a27.48,27.48,0,0,0,27.48,27.48Z"/>
          <path class="cls-1"
            d="M286.59,406a32.16,32.16,0,1,0-32.11-32.21v.07A32.13,32.13,0,0,0,286.59,406Z"/>
          <path class="cls-1"
            d="M358.24,357.61a36.71,36.71,0,1,0-36.6-36.82v.15A36.71,36.71,0,0,0,358.24,357.61Z"/>
          <path class="cls-1"
            d="M435.88,318.2a41.28,41.28,0,1,0-41.24-41.36A41.28,41.28,0,0,0,435.88,318.2Z"/>
          <path class="cls-1"
            d="M518.5,289.21a45.76,45.76,0,0,0,45.16-39,50.36,50.36,0,0,0,86-5.72,54.76,54.76,0,0,0,84.42,4,59.49,59.49,0,0,0,82.54,14.39,55.55,55.55,0,0,0,7.66,9.89,67.06,67.06,0,0,0-39.12,18,63.76,63.76,0,0,0-94.55,9.62,59.58,59.58,0,0,0-37.08-12.84,60.34,60.34,0,0,0-54.64,34.95,56.74,56.74,0,0,0-87.22,34.17A53.17,53.17,0,0,0,430.72,402v.2a49.62,49.62,0,0,0-74.44,43,50.68,50.68,0,0,0,2,13.79,45.54,45.54,0,0,0-24-6.94,46.13,46.13,0,1,0,46.11,46.18,47.11,47.11,0,0,0-1.58-11.45A49.62,49.62,0,0,0,455.5,447,52.91,52.91,0,0,0,484,455.28c.92,0,1.94-.12,2.93-.12a60.75,60.75,0,0,0-19.78,40.41,58.37,58.37,0,0,0-69.22,57.35,46.2,46.2,0,0,0,.46,6.85,44.14,44.14,0,0,0-6.29-.45,55.28,55.28,0,0,0-55.27,55.27h0a52.76,52.76,0,0,0,2.9,17.61c-1.12,0-2.2-.15-3.28-.15a52.16,52.16,0,0,0-44.49,79.53c-.5-.05-1-.08-1.51-.09a49.1,49.1,0,0,0-33.51,85c-.73,0-1.4-.21-2.06-.21a46.28,46.28,0,1,0,32.37,13.34c1,0,2.14.13,3.22.13a48.89,48.89,0,0,0,36-15.79v1.69a57.19,57.19,0,0,0,11.09,33.81,54.18,54.18,0,0,0-17,92.3,51.52,51.52,0,0,0-2.42,92.55,48.77,48.77,0,0,0,11.2,91.09,46,46,0,0,0,20.77,87.14,44.58,44.58,0,0,0,8.47-.87,42.93,42.93,0,1,0,13.06-2.19,41.08,41.08,0,0,0-7.9.77,45.91,45.91,0,0,0,32.58-43.84c0-1.17-.26-2.16-.36-3.31A52.66,52.66,0,0,0,423.14,1159a51,51,0,0,0,38.92,84h1.12a48.56,48.56,0,0,0,39.33,77,50,50,0,0,0,14.12-2.09,46.21,46.21,0,0,0,38.47,71.71,45.44,45.44,0,0,0,28.77-10.29,43.7,43.7,0,1,0,64.75-1.8,56.5,56.5,0,0,0,16.81-2.89v.59a53.52,53.52,0,0,0,29.14,47.62,37.74,37.74,0,0,0-8-.84,41.79,41.79,0,1,0,19.53,5.05,51.8,51.8,0,0,0,12.82,1.64,53.33,53.33,0,0,0,28.24-8.1,51,51,0,0,0,87.64,31.08A48.56,48.56,0,0,0,925.64,1467a46.09,46.09,0,0,0,91-4.29,43.63,43.63,0,1,0,44.42-46.51,57.63,57.63,0,0,0,9.87-14,53.43,53.43,0,0,0,54.51,13.58,41.38,41.38,0,1,0,23.21-7.1,39.38,39.38,0,0,0-11.84,1.92,53.52,53.52,0,0,0,24.44-33.68,50.56,50.56,0,0,0,32.91,12.08,51.11,51.11,0,0,0,51.17-51c0-.4-.12-.78-.12-1.1a48.58,48.58,0,0,0,77.1-39.21v-.1a46.29,46.29,0,0,0-2.11-14.12,46,46,0,0,0,61.49-67.17,43.07,43.07,0,0,0,28.4,10.79,43.77,43.77,0,1,0,1.77-87.53q-.89,0-1.77,0A43.14,43.14,0,0,0,1380,1151.7a59.5,59.5,0,0,0-2.86-16.94h.52a53.55,53.55,0,0,0,47.64-29.13,43.65,43.65,0,0,0-.83,8,41.84,41.84,0,1,0,5.11-19.51,52.68,52.68,0,0,0,1.64-12.81A54,54,0,0,0,1423,1053a51,51,0,0,0,31.06-87.64,48.56,48.56,0,0,0,15.25-90.92,46,46,0,0,0-4.31-91,44.09,44.09,0,1,0-7.92-.22,45.88,45.88,0,0,0-19.1,86.18,48.57,48.57,0,0,0-26.06,82.1,51,51,0,0,0-37.15,76.3,53.49,53.49,0,0,0-50.65,53.36,51.57,51.57,0,0,0,2.41,15.5q-1.23-.15-2.46-.18a56,56,0,0,0-55.93,55.93,35.8,35.8,0,0,0,.23,4,55.19,55.19,0,0,0-8.8-.73,58.26,58.26,0,0,0-57.67,50,63.08,63.08,0,0,0-15.94-2.17,60.88,60.88,0,0,0-55,35.18,53.25,53.25,0,0,0-82.25,19.65,53.45,53.45,0,0,0-86.5,10.88,53.64,53.64,0,0,0-75.39-8.34,52.85,52.85,0,0,0-5.35,4.91,53.68,53.68,0,0,0-79.78-21.69,53.61,53.61,0,0,0-74.33-37,53.43,53.43,0,0,0-54.92-51.9,52.7,52.7,0,0,0-7.21.7,53.58,53.58,0,0,0-51.53-65.72,53.42,53.42,0,0,0-27.63-70.3,52.54,52.54,0,0,0-7.1-2.52,53.55,53.55,0,0,0-9.66-75.12,52.54,52.54,0,0,0-6-4,53.65,53.65,0,0,0,2.7-82.93,54,54,0,0,0,28.06-35,53.26,53.26,0,0,0-8.2-43.76,53.52,53.52,0,0,0,40.44-64,52.49,52.49,0,0,0-1.83-6.28,53.57,53.57,0,0,0,55.75-61.49,53.7,53.7,0,0,0,66.1-47.18,53.55,53.55,0,0,0,75.26-29.06,52.94,52.94,0,0,0,41.26,13.52h-.09a52.89,52.89,0,0,0,40-24.69,53.43,53.43,0,0,0,81.28,7.45,53.39,53.39,0,0,0,79,24.83,53.67,53.67,0,0,0,27,37.21H1090a53.47,53.47,0,0,0,38.36,5.13c1.44,2,3,3.9,4.59,5.72a52.51,52.51,0,0,0,13.38,32,14.16,14.16,0,0,0,1.13,1.06c27.32,28.58,90.72,98,78.87,190.85-3,23.15,10,34.82,26.58,16.94,100.71-108.52,84.92-241.8,82.73-257.29a89,89,0,0,0-6.57-28.9,87.34,87.34,0,0,0,1.8-17.44,86.14,86.14,0,0,0-34.17-68.63,85,85,0,0,0,1.53-15.6,82.54,82.54,0,0,0-51.67-76.57,78.94,78.94,0,0,0-66.71-76.46A75.19,75.19,0,0,0,1106,276.14c-1.35,0-2.61.12-4,.16a71,71,0,0,0-85.66-46.87A67.39,67.39,0,0,0,927.05,196l-1.7.8a63.74,63.74,0,0,0-87.26-22.6,62.5,62.5,0,0,0-7.21,4.94,59.48,59.48,0,0,0-94.68-2.37,54.92,54.92,0,0,0-92.71,12,50.35,50.35,0,0,0-88.64,27,45.77,45.77,0,1,0-36.35,73.5Z"/>
          <path class="cls-1"
            d="M210.4,1472.48a3.6,3.6,0,1,0,3.6,3.6A3.6,3.6,0,0,0,210.4,1472.48Z"/>
          <path class="cls-1"
            d="M169,1390a7.07,7.07,0,0,0-7.19,6.94.45.45,0,0,0,0,.11,7.09,7.09,0,0,0,14.16.72q0-.36,0-.72A7,7,0,0,0,169,1390Z"/>
          <path class="cls-1"
            d="M136,1303.5a10.65,10.65,0,1,0,10.65,10.68A10.64,10.64,0,0,0,136,1303.5Z"/>
          <path class="cls-1" d="M111.88,1214.08a14.18,14.18,0,1,0,.07,0Z"/>
          <path class="cls-1"
            d="M114.72,1140.36a17.75,17.75,0,1,0-17.78,17.71h.16A17.74,17.74,0,0,0,114.72,1140.36Z"/>
          <path class="cls-1" d="M112.78,1051.28a21.31,21.31,0,1,0,0,.09Z"/>
          <path class="cls-1"
            d="M70.52,962.18a24.82,24.82,0,1,0,24.83-24.8h0a24.74,24.74,0,0,0-24.78,24.71Z"/>
          <path class="cls-1"
            d="M108.7,902.38A28.4,28.4,0,1,0,80.27,874v0a28.38,28.38,0,0,0,28.43,28.32Z"/>
          <path class="cls-1"
            d="M133.07,756.26a31.94,31.94,0,1,0,31.89,32v0A32,32,0,0,0,133.07,756.26Z"/>
          <path class="cls-1"
            d="M168.57,741.85a35.5,35.5,0,1,0-35.5-35.5h0A35.52,35.52,0,0,0,168.57,741.85Z"/>
          <path class="cls-1" d="M214.56,669a39,39,0,1,0-.15,0Z"/>
          <path class="cls-1"
            d="M312.7,560.17a42.59,42.59,0,1,0-42.61,42.57h0A42.61,42.61,0,0,0,312.7,560.17Z"/>
        </g>
      </g>
    </g>
  </g>
</svg>
